<?xml version="1.0" encoding="utf-8"?>
<!-- Generator: Adobe Illustrator 22.1.0, SVG Export Plug-In . SVG Version: 6.00 Build 0)  -->
<svg version="1.1" id="Layer_1" xmlns="http://www.w3.org/2000/svg" xmlns:xlink="http://www.w3.org/1999/xlink" x="0px" y="0px"
	 viewBox="0 0 24 24" style="enable-background:new 0 0 24 24;" xml:space="preserve">
<style type="text/css">
	.st0{fill:#FFFFFF;}
	.st1{fill:none;}
</style>
<polygon class="st0" points="13,3.5 8.1,8.9 8.4,19.8 17.5,19.9 20.1,17.3 22,12.6 21.9,9.3 13.8,9 12.5,9.2 13.8,7.6 14.5,4.8 
	14.6,2.5 "/>
<path class="st1" d="M0,0h24v24H0V0z"/>
<path class="st0" d="M21,8h-6.3l0.9-4.6l0-0.3c0-0.4-0.2-0.8-0.4-1.1l-1.1-1L7.6,7.6C7.2,7.9,7,8.4,7,9v10c0,1.1,0.9,2,2,2h9
	c0.8,0,1.5-0.5,1.8-1.2l3-7.1C23,12.5,23,12.3,23,12v-2C23,8.9,22.1,8,21,8z M21,12l-3,7H9V9l4.3-4.3L12.2,10H21V12z M1,9h4v12H1V9z
	"/>
</svg>
