<svg xmlns="http://www.w3.org/2000/svg" viewBox="0 0 227.18 60.76"><defs><style>.cls-1{fill:#ef5a34;}.cls-2{fill:#f9f5e4;}.cls-3{fill:#c00;}.cls-4{fill:#fff;}</style></defs><title>Asset 10</title><g id="Layer_2" data-name="Layer 2"><g id="Layer_1-2" data-name="Layer 1"><path class="cls-1" d="M0,1.74H26.55A23.56,23.56,0,0,1,40.67,5.85q6,4.31,6.13,14.51-.51,20.31-20.27,19.92h-12V59.53H0ZM14.54,28.66h9.84A8.31,8.31,0,0,0,30,27c1.48-1.14,2.23-3,2.23-5.57,0-2.76-.75-4.73-2.23-5.92a8.87,8.87,0,0,0-5.65-1.72H14.54Z"/><path class="cls-1" d="M90,38.19c0,12.4-9.06,21.39-21.67,21.39s-21.68-9-21.68-21.39,9.06-21.4,21.68-21.4S90,25.78,90,38.19Zm-31.36,0c0,6.27,3.83,10.8,9.69,10.8S78,44.46,78,38.19s-3.83-10.81-9.68-10.81S58.63,31.92,58.63,38.19Z"/><path class="cls-1" d="M93.13,18.8h12.41V23c2.44-3.27,6.2-5.16,11.43-5.16a15.09,15.09,0,0,1,5.36.7l.14,11.64a13.67,13.67,0,0,0-6.34-1.4c-6.62,0-10.59,3.77-10.59,10V59.64H93.13Z"/><path class="cls-1" d="M125.25,31.48q.61-7.85,6.14-10.91a26.2,26.2,0,0,1,12.52-2.81,55.59,55.59,0,0,1,6.9.42,16.21,16.21,0,0,1,5.79,2,10.29,10.29,0,0,1,4.17,4.05,15.72,15.72,0,0,1,1.43,7.15V49.18a37.21,37.21,0,0,0,.23,5.24,16.12,16.12,0,0,0,1.33,5.16H150.82a15.72,15.72,0,0,1-.78-3.82A14.1,14.1,0,0,1,147.31,58a14.71,14.71,0,0,1-3.18,1.57,21.66,21.66,0,0,1-7,1.18,14.52,14.52,0,0,1-9.46-3.06c-2.59-2.05-3.91-5.13-4-9.27q0-5,2.37-7.59a12.11,12.11,0,0,1,5.77-3.79,37.65,37.65,0,0,1,7.47-1.73c2.64-.25,5.06-.58,7.28-1A3.51,3.51,0,0,0,150,30.54a3.69,3.69,0,0,0-2-3.38,10.79,10.79,0,0,0-4.2-.84c-3.62,0-5.77,1.72-6.43,5.16ZM136.52,48a3.75,3.75,0,0,0,1.67,3.45,5.9,5.9,0,0,0,3.72,1.19q8.84.15,7.92-12a11.69,11.69,0,0,1-3.57,1.19c-1.49.31-3,.65-4.42,1a8.07,8.07,0,0,0-3.72,1.57A4.13,4.13,0,0,0,136.52,48Z"/><path class="cls-1" d="M180.5,7.6a7.6,7.6,0,0,1-15.19,0,7.6,7.6,0,1,1,15.19,0Zm-1.39,52.1H166.7v-41h12.41Z"/><path class="cls-1" d="M183.21,39.21c0-12.41,8.15-21.4,19.86-21.4,5.37,0,9.27,1.88,11.71,5.16V1.09h12.4V59.63h-12.4V55.44c-2.44,3.28-6.34,5.16-11.71,5.16C191.36,60.6,183.21,51.61,183.21,39.21Zm31.78,0c0-6.27-3.9-10.8-10-10.8s-9.68,4.53-9.68,10.8S199.1,50,205,50,215,45.48,215,39.21Z"/><path class="cls-2" d="M84.34,37.76a15.92,15.92,0,1,1-31.83,0"/><path class="cls-3" d="M52.51,37.76a15.92,15.92,0,1,1,31.83,0"/><path class="cls-4" d="M68.43,43.92a6.16,6.16,0,1,1,6.16-6.16A6.17,6.17,0,0,1,68.43,43.92Z"/><path class="cls-1" d="M68.43,33.1a4.66,4.66,0,1,1-4.67,4.66,4.66,4.66,0,0,1,4.67-4.66m0-3a7.66,7.66,0,1,0,7.66,7.66,7.68,7.68,0,0,0-7.66-7.66Z"/></g></g></svg>