<svg xmlns="http://www.w3.org/2000/svg" viewBox="0 0 248.37 68.33"><defs><style>.cls-1{fill:#3e55ff;}.cls-2{fill:#ffef29;}</style></defs><title>Asset 50</title><g id="Layer_2" data-name="Layer 2"><g id="Layer_1-2" data-name="Layer 1"><path class="cls-1" d="M55.1,0H13.23A13.23,13.23,0,0,0,0,13.23V55.1A13.23,13.23,0,0,0,13.23,68.33H55.1A13.23,13.23,0,0,0,68.33,55.1V13.23A13.23,13.23,0,0,0,55.1,0ZM54,37.25A9.1,9.1,0,1,1,56.87,24.7,9.1,9.1,0,0,1,54,37.25Z"/><circle class="cls-1" cx="49.38" cy="29.5" r="4.75"/><path class="cls-2" d="M22.1,32.27,10.36,52.61a2.78,2.78,0,0,0,2.41,4.18H36.25a2.79,2.79,0,0,0,2.42-4.18L26.93,32.27A2.79,2.79,0,0,0,22.1,32.27Z"/><path class="cls-1" d="M99.23,22.49A31,31,0,0,1,97.86,31L108,42.42a4.25,4.25,0,0,1-.37,6.4c-1.86,1.61-4.16,1.43-6-.68l-7.08-9.07a38.77,38.77,0,0,1-8,10.25,4.23,4.23,0,0,1-6.21-.13,4,4,0,0,1,.37-5.9A28.34,28.34,0,0,0,89.79,22.8V14.17c0-2.29,1.8-3.66,4.72-3.66s4.72,1.37,4.72,3.66ZM112,32.68H105.5c-1.93,0-3-1.37-3-3.6s1.11-3.73,3-3.73H112V12c0-2,1.74-3.17,4.22-3.17S120.4,10,120.4,12V55.9c0,2.05-1.74,3.1-4.22,3.1S112,58,112,56Zm12.66-21.11c0-2,1.8-3.17,4.29-3.17s4.28,1.18,4.28,3.17V56.83c0,2.05-1.8,3.1-4.28,3.1s-4.29-1-4.29-3.23Z"/><path class="cls-1" d="M170.51,48.82h19.86c2,0,3.48,1.43,3.48,3.79s-1.43,3.78-3.48,3.78H141.2c-2,0-3.48-1.42-3.48-3.78s1.43-3.79,3.48-3.79h19.87V43.48c0-2,1.8-3.29,4.72-3.29s4.72,1.3,4.72,3.29Zm16.14-20.68c0,7.58-3.48,10.5-21.05,10.5s-21-2.92-21-10.5a56,56,0,0,1,1.31-11.92c.93-4.09,2.92-5.71,7.32-5.71h26c5,0,7.45,2.42,7.45,7.45Zm-32.35-1c0,2.86,1.31,3.91,11.3,3.91s11.3-1,11.3-4V20.38c0-1.74-.68-2.42-2.42-2.42H157.1c-1.43,0-2.11.62-2.36,2.42A51,51,0,0,0,154.3,27.15Z"/><path class="cls-1" d="M215.27,11.19c10.68,0,17.51,6.9,17.51,17.89S226,47,215.27,47s-17.51-6.89-17.51-17.88S204.59,11.19,215.27,11.19Zm0,28c5,0,8-3.79,8-10.12s-3-10.12-8-10.12-8,3.78-8,10.12S210.31,39.2,215.27,39.2Zm33.1,17.26c0,2.11-1.74,3.47-4.66,3.47s-4.66-1.36-4.66-3.47V11.88c0-2.11,1.74-3.48,4.66-3.48s4.66,1.37,4.66,3.48Z"/></g></g></svg>